<?xml version="1.0" standalone="no"?>
<!DOCTYPE svg PUBLIC "-//W3C//DTD SVG 20010904//EN"
 "http://www.w3.org/TR/2001/REC-SVG-20010904/DTD/svg10.dtd">
<svg version="1.0" xmlns="http://www.w3.org/2000/svg"
 width="700.000000pt" height="700.000000pt" viewBox="0 0 700.000000 700.000000"
 preserveAspectRatio="xMidYMid meet">
<metadata>
Created by potrace 1.11, written by Peter Selinger 2001-2013
</metadata>
<g transform="translate(0.000000,700.000000) scale(0.100000,-0.100000)"
fill="#000000" stroke="none">
<path d="M3358 6335 c-2 -1 -41 -5 -88 -9 -144 -11 -318 -38 -368 -57 -15 -6
-27 -10 -27 -9 0 3 -57 -11 -130 -32 -77 -21 -231 -77 -314 -115 -29 -13 -58
-25 -65 -26 -6 -1 -13 -5 -16 -8 -3 -4 -34 -21 -70 -39 -62 -31 -252 -143
-274 -161 -6 -5 -47 -36 -91 -68 -44 -32 -92 -70 -107 -84 -16 -15 -28 -25
-28 -23 0 2 -17 -13 -38 -33 -21 -20 -58 -54 -83 -77 -24 -22 -75 -76 -114
-119 -38 -43 -74 -83 -80 -89 -8 -9 -75 -97 -107 -141 -4 -5 -18 -23 -31 -40
-35 -44 -168 -269 -204 -345 -50 -106 -59 -128 -118 -275 -4 -11 -9 -24 -10
-30 -2 -5 -16 -55 -33 -110 -17 -55 -34 -116 -38 -135 -4 -19 -8 -37 -9 -40
-1 -3 -5 -25 -10 -50 -5 -25 -9 -47 -10 -50 -46 -195 -55 -681 -15 -862 5 -27
4 -38 -4 -38 -8 0 -8 -2 0 -8 6 -4 17 -41 25 -82 14 -81 15 -89 18 -92 2 -2 4
-12 6 -24 9 -43 34 -131 54 -188 11 -32 18 -63 15 -67 -3 -5 -1 -9 4 -9 6 0
13 -12 17 -27 3 -15 15 -45 25 -68 10 -22 31 -71 48 -110 17 -38 37 -83 46
-99 8 -16 12 -34 9 -39 -3 -6 -2 -7 4 -4 8 5 33 -30 38 -53 1 -5 11 -21 67
-110 16 -24 26 -50 23 -58 -2 -7 -1 -10 4 -7 6 3 24 -16 42 -42 18 -27 41 -58
52 -70 11 -12 16 -27 12 -34 -5 -7 -4 -10 2 -6 6 4 32 -21 59 -56 27 -34 58
-71 69 -83 11 -12 50 -52 86 -90 57 -60 163 -158 224 -207 129 -103 190 -147
203 -147 7 0 12 -4 12 -8 0 -5 11 -15 25 -22 13 -7 22 -18 18 -23 -3 -6 -1 -7
5 -3 13 8 72 -23 72 -38 0 -5 3 -6 7 -3 3 4 11 3 17 -2 12 -10 225 -117 286
-144 19 -8 76 -30 125 -47 50 -18 97 -35 105 -38 8 -3 20 -6 25 -8 6 -1 44
-11 85 -22 158 -43 302 -68 450 -79 47 -3 87 -10 88 -15 2 -5 10 -4 18 3 11 9
14 9 14 0 0 -7 5 -9 12 -5 11 7 53 7 93 1 11 -2 34 -1 52 4 18 4 36 3 39 -2 3
-5 9 -7 15 -4 5 3 41 8 81 11 126 8 237 21 293 36 22 6 54 11 70 13 17 1 38 6
47 10 9 4 22 4 28 0 5 -3 10 -2 10 2 0 8 153 49 166 44 4 -2 10 2 13 7 3 5 44
22 91 37 47 15 91 33 99 39 8 6 16 10 18 8 11 -8 332 152 380 190 7 5 18 6 24
2 8 -4 9 -3 5 4 -6 11 62 62 83 62 5 0 11 3 13 8 2 4 30 27 63 51 33 25 62 48
63 53 2 4 8 8 14 8 6 0 19 10 29 22 11 11 19 19 19 16 0 -4 15 8 33 25 18 18
62 60 97 93 36 34 86 85 112 113 29 32 52 49 59 45 8 -4 9 -3 5 5 -6 10 36 72
84 122 8 9 22 26 30 39 8 12 20 28 25 34 6 6 24 32 40 58 17 27 33 48 38 48 4
0 7 4 7 10 0 5 16 34 35 64 53 83 185 348 191 382 1 6 9 27 17 45 35 77 106
323 126 434 37 203 45 294 45 515 1 208 -7 300 -40 478 -13 73 -21 138 -18
144 4 6 3 8 -3 5 -6 -4 -15 18 -23 51 -13 59 -81 265 -105 317 -25 56 -48 110
-49 115 -3 11 -85 168 -114 217 -17 28 -28 54 -25 57 4 3 2 6 -4 6 -9 0 -73
93 -73 106 0 2 -7 12 -16 22 -8 9 -45 55 -81 102 -65 85 -221 262 -236 269
-19 8 -55 55 -50 64 3 6 2 7 -4 4 -10 -6 -46 20 -111 81 -19 17 -38 32 -41 32
-3 0 -17 10 -31 23 -14 13 -47 38 -75 57 -27 19 -54 38 -60 42 -58 48 -310
186 -435 238 -41 17 -88 37 -105 45 -16 7 -49 19 -72 26 -24 7 -43 16 -43 21
0 5 -4 7 -9 4 -5 -3 -45 5 -90 19 -45 13 -108 29 -141 36 -33 6 -57 15 -54 20
3 5 -2 6 -10 3 -9 -3 -46 -1 -83 5 -65 11 -117 18 -193 27 -42 5 -387 13 -392
9z"/>
<path d="M1586 1722 c-3 -5 1 -9 9 -9 8 0 12 4 9 9 -3 4 -7 8 -9 8 -2 0 -6 -4
-9 -8z"/>
<path d="M1870 1366 c0 -2 7 -7 16 -10 8 -3 12 -2 9 4 -6 10 -25 14 -25 6z"/>
</g>
</svg>
